<?xml version="1.0" encoding="UTF-8"?>
<svg xmlns="http://www.w3.org/2000/svg" viewBox="0 0 100 100" width="100" height="100">
  <rect width="100%" height="100%" fill="#f5fde6"></rect>
  <rect x="30" y="78.5" width="40" height="2" rx="1" ry="1" fill="#18e336"></rect>
  <ellipse cx="41" cy="65.5" rx="12" ry="12" fill="#00452d"></ellipse>
  <rect x="47" y="41.5" width="6" height="24" rx="0.5" ry="0.5" fill="#00452d"></rect>
  <rect x="47" y="32.5" width="6" height="6" rx="0.5" ry="0.5" fill="#00452d"></rect>
  <rect x="47" y="19.5" width="26" height="10" rx="0.5" ry="0.5" fill="#00452d"></rect>
  <rect x="65" y="27" width="8" height="39.314" rx="0.5" fill="#00452d"></rect>
  <rect x="29" y="41.5" width="6" height="6" rx="0.5" ry="0.5" fill="#00452d"></rect>
  <rect x="57" y="69.5" width="6" height="6" rx="0.5" ry="0.5" fill="#00452d"></rect>
  <rect x="57" y="32.5" width="6" height="6" rx="0.5" ry="0.5" fill="#18e336"></rect>
  <rect x="57" y="41.5" width="6" height="6" rx="0.5" ry="0.5" fill="#18e336"></rect>
  <rect x="38" y="32.5" width="6" height="6" rx="0.5" ry="0.5" fill="#18e336"></rect>
  <rect x="29" y="32.5" width="6" height="6" rx="0.5" ry="0.5" fill="#18e336"></rect>
  <rect x="38" y="19.5" width="6" height="6" rx="0.5" ry="0.5" fill="#18e336"></rect>
  <rect x="66.5" y="69.5" width="6" height="6" rx="0.5" ry="0.5" fill="#18e336"></rect>
</svg>