<?xml version="1.0" standalone="no"?>
<!DOCTYPE svg PUBLIC "-//W3C//DTD SVG 20010904//EN"
 "http://www.w3.org/TR/2001/REC-SVG-20010904/DTD/svg10.dtd">
<svg version="1.0" xmlns="http://www.w3.org/2000/svg"
 width="700.000000pt" height="700.000000pt" viewBox="0 0 700.000000 700.000000"
 preserveAspectRatio="xMidYMid meet">
<metadata>
Created by potrace 1.14, written by Peter Selinger 2001-2017
</metadata>
<g transform="translate(0.000000,700.000000) scale(0.100000,-0.100000)"
fill="#000000" stroke="none">
<path d="M3297 5623 c-4 -3 -7 -156 -7 -340 l0 -333 26 -10 c15 -6 261 -10
630 -10 l604 0 0 -1273 c0 -977 3 -1276 12 -1285 18 -18 521 -17 537 2 8 10
10 444 9 1632 l-3 1619 -901 3 c-495 1 -904 -1 -907 -5z"/>
<path d="M3297 4714 c-4 -4 -7 -94 -7 -201 l0 -193 26 -10 c33 -13 335 -13
369 0 l25 10 -2 197 -3 198 -201 3 c-110 1 -203 -1 -207 -4z"/>
<path d="M2037 4084 c-4 -4 -7 -94 -7 -201 l0 -193 26 -10 c33 -13 335 -13
369 0 l25 10 -2 197 -3 198 -201 3 c-110 1 -203 -1 -207 -4z"/>
<path d="M3297 4084 c-4 -4 -7 -216 -7 -471 0 -254 -2 -463 -4 -463 -2 0 -33
14 -70 30 -216 98 -498 94 -711 -10 -173 -85 -301 -213 -386 -386 -206 -420
-35 -918 386 -1124 221 -108 509 -108 730 0 173 85 300 212 385 385 90 186 85
118 85 1140 l0 900 -201 3 c-110 1 -203 -1 -207 -4z"/>
<path d="M3997 2124 c-4 -4 -7 -94 -7 -201 l0 -193 26 -10 c33 -13 335 -13
369 0 l25 10 -2 197 -3 198 -201 3 c-110 1 -203 -1 -207 -4z"/>
</g>
</svg>
